
<svg width="114" height="113" viewBox="0 0 114 113" fill="none" xmlns="http://www.w3.org/2000/svg">
<g style="mix-blend-mode:difference">
<mask id="mask0_1_9902" style="mask-type:alpha" maskUnits="userSpaceOnUse" x="0" y="0" width="114" height="113">
<path d="M57.2119 113C88.416 113 113.712 87.7041 113.712 56.5C113.712 25.2959 88.416 0 57.2119 0C26.0078 0 0.711914 25.2959 0.711914 56.5C0.711914 87.7041 26.0078 113 57.2119 113Z" fill="#C4C4C4"/>
</mask>
<g mask="url(#mask0_1_9902)">
<path d="M57.2117 112.294C88.0257 112.294 113.005 87.3141 113.005 56.5C113.005 25.686 88.0257 0.706299 57.2117 0.706299C26.3977 0.706299 1.41797 25.686 1.41797 56.5C1.41797 87.3141 26.3977 112.294 57.2117 112.294Z" stroke="#000000" stroke-width="0.8"/>
<path d="M113.712 81.925H0.711914V83.3375H113.712V81.925Z" fill="#000000"/>
<path d="M113.712 29.6625H0.711914V31.075H113.712V29.6625Z" fill="#000000"/>
<path d="M113.712 14.125H0.711914V15.5375H113.712V14.125Z" fill="#000000"/>
<path d="M113.712 97.4625H0.711914V98.875H113.712V97.4625Z" fill="#000000"/>
<path d="M57.2121 112.294C77.1047 112.294 93.2309 87.3141 93.2309 56.5C93.2309 25.686 77.1047 0.706299 57.2121 0.706299C37.3195 0.706299 21.1934 25.686 21.1934 56.5C21.1934 87.3141 37.3195 112.294 57.2121 112.294Z" stroke="#000000" stroke-width="0.8"/>
<path d="M71.5118 34.6063C69.141 14.6749 63.6307 0.706299 57.2116 0.706299C50.7925 0.706299 45.2822 14.6749 42.9111 34.6063M71.5118 78.3938C69.141 98.3249 63.6307 112.294 57.2116 112.294C50.7925 112.294 45.2822 98.3249 42.9111 78.3938" stroke="#000000" stroke-width="0.8" stroke-linecap="round"/>
<path fill-rule="evenodd" clip-rule="evenodd" d="M80.9499 60.9711C81.0685 60.5542 81.125 60.1221 81.118 59.6886V57.8953C81.1257 57.4617 81.0678 57.0294 80.9471 56.6129C80.8503 56.2727 80.6843 55.9563 80.4583 55.684C80.2507 55.4383 79.9873 55.2459 79.6899 55.1227C79.3651 54.9918 79.0183 54.9269 78.668 54.9319C78.3212 54.9269 77.9766 54.9918 77.6552 55.1227C77.3579 55.2466 77.0945 55.4389 76.8861 55.684C76.6629 55.9577 76.4963 56.2736 76.3981 56.6129C76.2794 57.0298 76.2222 57.4619 76.2293 57.8953V59.6886C76.2215 60.1223 76.2794 60.5546 76.4009 60.9711C76.4991 61.311 76.6665 61.6272 76.8918 61.9C77.1001 62.1465 77.3649 62.3391 77.6637 62.4612C78.3177 62.7158 79.0437 62.7158 79.6984 62.4612C79.9964 62.34 80.2606 62.1473 80.4668 61.9C80.69 61.6266 80.8538 61.3105 80.9499 60.9711ZM79.8721 57.4323L77.4702 59.2199V57.6681C77.437 57.2096 77.5401 56.7515 77.7675 56.3519C77.8692 56.2095 78.0055 56.0956 78.1637 56.0209C78.3219 55.9463 78.4964 55.9133 78.6708 55.9253C78.834 55.9152 78.9964 55.9433 79.1468 56.007C79.2965 56.0709 79.43 56.1688 79.5353 56.2929C79.7606 56.6298 79.8778 57.0271 79.8721 57.4323ZM77.478 60.1909L79.8834 58.4005V59.9075C79.8834 61.0806 79.4823 61.6643 78.6821 61.6643C77.9412 61.6643 77.5429 61.1732 77.478 60.1909ZM74.3048 59.6886C74.3118 60.1221 74.2553 60.5542 74.1367 60.9711C74.0406 61.3105 73.8761 61.6266 73.6536 61.9C73.4467 62.1465 73.1825 62.3391 72.8845 62.4612C72.2298 62.7165 71.5024 62.7165 70.8474 62.4612C70.5495 62.3376 70.285 62.1453 70.0756 61.9C69.8521 61.6263 69.6861 61.3104 69.5873 60.9711C69.4651 60.5548 69.4064 60.1224 69.4134 59.6886V57.8953C69.4071 57.4618 69.4648 57.0297 69.5845 56.6129C69.681 56.2727 69.8473 55.9563 70.0728 55.684C70.2808 55.4383 70.5444 55.2459 70.8417 55.1227C71.1632 54.9918 71.508 54.9269 71.8548 54.9319C72.2044 54.9272 72.5519 54.9921 72.876 55.1227C73.1734 55.2466 73.4368 55.4389 73.6451 55.684C73.8711 55.9563 74.0371 56.2727 74.1339 56.6129C74.2532 57.0297 74.3111 57.4618 74.3048 57.8953V59.6886ZM70.6565 59.22L73.0618 57.4323C73.0688 57.0266 72.9502 56.6285 72.7221 56.2929C72.6168 56.1688 72.4841 56.0709 72.335 56.0071C72.1853 55.9433 72.0229 55.9152 71.8604 55.9253C71.686 55.9133 71.5116 55.9463 71.3534 56.0209C71.1949 56.0956 71.0585 56.2095 70.9568 56.3519C70.7285 56.7511 70.624 57.2093 70.6565 57.6681V59.22ZM73.0731 58.4005L70.6677 60.1909C70.7295 61.1732 71.1299 61.6643 71.8689 61.6643C72.6712 61.6643 73.0731 61.0806 73.0731 59.9075V58.4005ZM47.1142 60.5532C47.2301 60.1376 47.2877 59.7079 47.2854 59.2763L47.2714 58.3166C47.2732 57.8851 47.2156 57.4555 47.1002 57.0397C46.9974 56.6514 46.8243 56.2852 46.5895 55.9593C46.3672 55.6514 46.0798 55.3966 45.7476 55.2128C45.3811 55.02 44.9717 54.9234 44.5577 54.9322C44.2783 54.9287 44.0003 54.9724 43.7354 55.0612C43.2522 55.2244 42.8355 55.5406 42.5483 55.962C42.4003 56.1772 42.278 56.409 42.1835 56.6525C42.0833 56.9101 42.009 57.1771 41.9618 57.4494C41.9109 57.7347 41.8856 58.024 41.8861 58.3138V59.2736C41.884 59.7039 41.9407 60.1326 42.0544 60.5477C42.1561 60.9326 42.3252 61.2966 42.554 61.6224C42.7742 61.932 43.0621 62.1873 43.3958 62.3689C43.7573 62.5618 44.1622 62.6584 44.5717 62.6496C44.9687 62.6617 45.3624 62.5749 45.7176 62.397C46.0727 62.2193 46.3781 61.956 46.6063 61.6309C46.8396 61.3055 47.0117 60.9403 47.1142 60.5532ZM45.9637 57.4663C46.0122 57.7443 46.0385 58.0259 46.0422 58.3081V59.282C46.0395 59.5642 46.0142 59.8457 45.9664 60.1239C45.9262 60.3844 45.8456 60.6372 45.7279 60.8732C45.6207 61.0843 45.4661 61.2678 45.2761 61.4091C45.0698 61.5521 44.8225 61.624 44.5717 61.614C44.3244 61.624 44.0807 61.552 43.8785 61.4091C43.6905 61.2683 43.5402 61.0832 43.4407 60.8703C43.3271 60.6335 43.2495 60.3809 43.2106 60.1211C43.1651 59.8427 43.1406 59.5612 43.1377 59.2792V58.311C43.1397 58.029 43.1632 57.7475 43.2078 57.469C43.244 57.2108 43.3207 56.9598 43.4351 56.7254C43.5346 56.5134 43.685 56.3292 43.873 56.1894C44.0759 56.0487 44.3192 55.9778 44.5661 55.9873C44.8164 55.9779 45.0632 56.0488 45.2705 56.1894C45.4611 56.3289 45.6159 56.5117 45.7223 56.7226C45.8401 56.9568 45.9215 57.2075 45.9637 57.4663ZM39.2799 60.6129C39.2833 60.4482 39.2457 60.2852 39.1705 60.1387C39.0915 59.9985 38.9834 59.8769 38.8534 59.7822C38.7055 59.6679 38.5432 59.5735 38.3706 59.5016C38.1704 59.4203 37.9662 59.3491 37.7589 59.2883C37.4606 59.2 37.1682 59.0932 36.8833 58.9684C36.6088 58.8469 36.3513 58.6904 36.1172 58.5026C35.8959 58.3237 35.7102 58.1047 35.5699 57.8571C35.4274 57.5997 35.3549 57.3094 35.3595 57.0152C35.3544 56.7129 35.4269 56.4144 35.5699 56.1481C35.7078 55.893 35.8993 55.6709 36.1312 55.497C36.3765 55.3117 36.6532 55.172 36.9478 55.0845C37.2611 54.986 37.5877 54.9368 37.916 54.9385C38.261 54.9357 38.6037 54.9927 38.9291 55.1069C39.2313 55.2096 39.5112 55.3686 39.7542 55.5755C39.9883 55.7754 40.1793 56.0208 40.3154 56.2968C40.4551 56.5874 40.5271 56.906 40.5259 57.2285H39.2883C39.2744 57.0504 39.2337 56.8753 39.1676 56.7093C39.1027 56.5569 39.0072 56.4193 38.887 56.3052C38.7675 56.1878 38.6238 56.0978 38.466 56.0414C38.286 55.9774 38.0959 55.946 37.9048 55.9488C37.73 55.9474 37.556 55.972 37.3884 56.0218C37.2394 56.0643 37.1001 56.1359 36.9787 56.2323C36.8608 56.3248 36.766 56.4434 36.7017 56.5787C36.6374 56.7141 36.6054 56.8625 36.6083 57.0124C36.6047 57.1743 36.6518 57.3332 36.743 57.467C36.8376 57.6012 36.9566 57.7164 37.0938 57.8066C37.2495 57.9081 37.4161 57.9919 37.5905 58.0564C37.7785 58.1265 37.975 58.191 38.177 58.25C38.4845 58.3413 38.7847 58.4558 39.075 58.5923C39.3469 58.7212 39.5999 58.8864 39.8271 59.0835C40.0406 59.2687 40.2159 59.4936 40.3435 59.7458C40.4743 60.0138 40.5397 60.3091 40.5344 60.6073C40.5414 60.9146 40.4679 61.2185 40.3211 61.4885C40.1845 61.7413 39.9927 61.96 39.7598 62.1284C39.5105 62.307 39.231 62.4391 38.9347 62.5184C38.6158 62.6066 38.2862 62.651 37.9554 62.6503C37.7254 62.6503 37.4961 62.6278 37.2706 62.583C37.0461 62.5391 36.8268 62.4713 36.6167 62.3809C36.4106 62.2929 36.2156 62.1809 36.0358 62.047C35.8597 61.9172 35.7029 61.7632 35.5699 61.5895C35.4362 61.4125 35.331 61.2156 35.2584 61.0058C35.1802 60.7773 35.1404 60.5373 35.1406 60.2958H36.381C36.3936 60.5019 36.445 60.7037 36.5325 60.8908C36.6095 61.0535 36.7217 61.1973 36.8609 61.3117C37.0052 61.4243 37.1687 61.5099 37.3435 61.5643C37.5422 61.6224 37.7484 61.6508 37.9554 61.6484C38.1316 61.6495 38.3071 61.6269 38.4773 61.5811C38.6289 61.5418 38.7717 61.4742 38.8983 61.3819C39.0203 61.296 39.1195 61.1815 39.187 61.0485C39.2545 60.9153 39.2883 60.7677 39.2855 60.6186L39.2799 60.6129ZM28.7344 55.0363H33.1993V56.0606H31.5744V61.5245H33.1993V62.5461H28.7344V61.5245H30.3199V56.0606H28.7344V55.0363ZM60.6419 62.5466H55.5906V61.7047L58.0349 59.0359C58.2425 58.8058 58.4137 58.6037 58.5541 58.4241C58.6771 58.2706 58.7887 58.1084 58.888 57.9386C58.9621 57.8085 59.0205 57.67 59.062 57.526C59.0964 57.3998 59.1143 57.2697 59.1153 57.1388C59.1167 56.9762 59.0891 56.8146 59.0339 56.6617C58.9847 56.5221 58.9073 56.3941 58.8066 56.2857C58.7072 56.1784 58.5856 56.0941 58.4502 56.0387C58.2052 55.9491 57.9405 55.9279 57.6844 55.9774C57.4284 56.0268 57.1905 56.145 56.9965 56.3193C56.7714 56.6063 56.6586 56.9655 56.6794 57.3296H55.4474C55.4456 57.0124 55.5056 56.6978 55.6242 56.4035C55.7404 56.1176 55.9142 55.8587 56.1349 55.643C56.3676 55.4199 56.6424 55.2453 56.9432 55.1294C57.6061 54.8888 58.3309 54.8789 59.0003 55.1014C59.2727 55.1978 59.522 55.3498 59.7327 55.5476C59.9316 55.7384 60.0868 55.9701 60.1873 56.2267C60.2931 56.5005 60.3455 56.792 60.3416 57.0855C60.3428 57.3166 60.3048 57.5462 60.2294 57.7646C60.1478 57.9929 60.0424 58.2121 59.9151 58.4185C59.7711 58.6468 59.6107 58.8644 59.4352 59.0695C59.25 59.2884 59.0479 59.5129 58.8319 59.7431L57.1284 61.57H60.6419V62.5466ZM64.5128 62.5535L67.5212 55.7286V55.0439H62.3266V56.0681H66.2191L63.2135 62.5535H64.5128ZM86.3181 62.5492H85.0807V56.5716L83.1611 57.2732V56.19L86.2482 55.0506H86.3266L86.3181 62.5492ZM33.2932 71.7458C33.4326 71.4386 33.5189 71.1102 33.5486 70.7747L32.3167 70.8001C32.3035 71.1773 32.1642 71.5389 31.9209 71.827C31.7939 71.9535 31.6413 72.0516 31.4734 72.1145C31.3055 72.1773 31.1261 72.2042 30.9471 72.1922C30.7019 72.2013 30.4594 72.1364 30.2512 72.0064C30.0617 71.8828 29.9078 71.7119 29.8049 71.5099C29.6858 71.2804 29.6043 71.0332 29.5636 70.7775C29.5118 70.4811 29.4864 70.1805 29.4878 69.8795V68.858C29.4869 68.5654 29.5122 68.2733 29.5636 67.9852C29.6044 67.7284 29.6869 67.4801 29.8078 67.25C29.9158 67.0478 30.0707 66.8746 30.2596 66.7449C30.4669 66.6148 30.7082 66.5494 30.9527 66.5568C31.1514 66.5521 31.349 66.5874 31.5336 66.6606C31.6901 66.7196 31.8299 66.8159 31.9406 66.9413C32.0548 67.075 32.1424 67.2293 32.1988 67.3959C32.2635 67.5876 32.3049 67.7864 32.3222 67.988H33.557C33.5244 67.6425 33.4402 67.3039 33.3072 66.9834C33.1876 66.6956 33.011 66.435 32.7881 66.2172C32.5645 66.0024 32.2989 65.8361 32.008 65.7289C31.6742 65.6087 31.3215 65.5497 30.9668 65.555C30.5613 65.546 30.1598 65.6355 29.7965 65.8159C29.4659 65.9873 29.1782 66.231 28.9546 66.5287C28.7186 66.8396 28.5425 67.1917 28.4355 67.5671C28.3187 67.9828 28.2583 68.4122 28.2559 68.844V69.8543C28.2575 70.2866 28.316 70.7168 28.4299 71.1342C28.5311 71.5106 28.7014 71.8659 28.9322 72.1809C29.1553 72.4775 29.4433 72.719 29.7741 72.8878C30.1393 73.0714 30.5441 73.1618 30.9527 73.152C31.298 73.1555 31.6411 73.0976 31.9659 72.9803C32.2584 72.8744 32.5266 72.7098 32.7544 72.498C32.9819 72.2854 33.165 72.0297 33.2932 71.7458ZM39.5455 69.7265H36.5034V72.0474H40.0646V73.0439H35.2939V65.6461H40.0422V66.6535H36.5034V68.7415H39.5455V69.7265ZM43.1118 70.1558H44.3493L45.7553 73.046H47.0547V72.9846L45.4915 69.8752C45.6861 69.791 45.8699 69.6836 46.0387 69.5553C46.2021 69.4327 46.346 69.286 46.4653 69.1203C46.5867 68.9485 46.6814 68.7592 46.746 68.5591C46.8134 68.3381 46.8465 68.1081 46.8441 67.8771C46.8515 67.5414 46.7854 67.208 46.6506 66.9005C46.5271 66.6292 46.3404 66.3915 46.1061 66.2073C45.8602 66.0157 45.5788 65.8746 45.2782 65.792C44.9364 65.6969 44.5834 65.6478 44.2287 65.6461H41.891V73.0439H43.1118V70.1558ZM44.2343 69.1736H43.1118L43.0949 66.6199H44.2175C44.4134 66.6195 44.6084 66.6488 44.7955 66.7069C44.9585 66.7566 45.1087 66.8408 45.2362 66.9538C45.361 67.0627 45.4574 67.2005 45.5168 67.3551C45.5862 67.5339 45.6196 67.7246 45.615 67.9164C45.6187 68.0992 45.5843 68.2808 45.514 68.4496C45.4497 68.5983 45.354 68.7314 45.2333 68.8397C45.1044 68.9489 44.9558 69.0328 44.7955 69.0866C44.6143 69.1455 44.4248 69.1749 44.2343 69.1736ZM53.7679 66.6535H51.4976V73.0439H50.2825V66.6535H48.0374V65.6461H53.7763L53.7679 66.6535ZM59.7509 65.6461H55.3506V66.6591H56.9165V72.0361H55.3506V73.0439H59.7397V72.0361H58.1401V66.6591H59.7509V65.6461ZM66.2792 69.8962H63.1754V73.0474H61.9462V65.6502H66.7338V66.6577H63.1754V68.9027H66.2792V69.8962ZM73.0667 65.6461H68.6692V66.6591H70.2323V72.0361H68.6692V73.0439H73.0667V72.0361H71.4671V66.6591H73.0667V65.6461ZM79.4985 69.7265H76.4567V72.0474H80.0289V73.0439H75.2307V65.6461H79.9816V66.6535H76.4567V68.7415H79.4985V69.7265ZM81.7635 65.6461V73.0439L83.6075 73.0743C84.0687 73.0806 84.5263 72.9959 84.9543 72.825C85.3406 72.6668 85.6895 72.4288 85.9763 72.1258C86.2637 71.815 86.4848 71.4485 86.6246 71.048C86.7842 70.5979 86.8633 70.1229 86.8569 69.6451V69.0839C86.8633 68.6061 86.7842 68.131 86.6246 67.6807C86.4826 67.2803 86.2609 66.9129 85.9734 66.6003C85.6832 66.2958 85.3307 66.0575 84.9409 65.9015C84.5044 65.7303 84.0397 65.6437 83.5708 65.6461H81.7635ZM83.0044 72.0615V66.634L83.5708 66.6396C83.8815 66.6355 84.1901 66.6977 84.4748 66.822C84.7234 66.9382 84.9416 67.1113 85.1118 67.3271C85.2862 67.5546 85.4148 67.8138 85.4904 68.0904C85.5758 68.4089 85.6196 68.7373 85.6196 69.0671V69.6283C85.6203 69.9646 85.5765 70.2995 85.4904 70.6246C85.4176 70.9018 85.2898 71.161 85.1146 71.3877C84.948 71.6003 84.7318 71.7698 84.4861 71.8821C84.2099 72.005 83.9098 72.0664 83.6075 72.0615H83.0044Z" fill="#000000"/>
<path fill-rule="evenodd" clip-rule="evenodd" d="M35.6234 50.951C35.8713 50.77 36.0983 50.5618 36.2999 50.3304L36.2596 46.0199H32.3866V47.4753H34.4317V49.7376C34.3391 49.8634 34.2219 49.969 34.0872 50.048C33.9414 50.1321 33.7862 50.1988 33.6248 50.2466C33.4516 50.3001 33.274 50.3385 33.0942 50.3614C32.9129 50.3832 32.7305 50.3946 32.5479 50.3956C32.1576 50.3998 31.7742 50.2921 31.4432 50.0852C31.1345 49.885 30.8772 49.615 30.6922 49.2969C30.4904 48.9422 30.3458 48.5578 30.2639 48.158C30.1729 47.7127 30.1251 47.2595 30.1211 46.805V45.3868C30.1258 44.9314 30.1725 44.4774 30.2608 44.0306C30.3386 43.6309 30.4778 43.2456 30.6736 42.8886C30.8453 42.5756 31.0863 42.306 31.378 42.1003C31.6788 41.9026 32.0329 41.8018 32.3928 41.8117C32.6788 41.7979 32.965 41.8368 33.2369 41.9265C33.4642 42.0136 33.6705 42.1479 33.8421 42.3207C34.0131 42.4996 34.147 42.7105 34.2362 42.9413C34.3418 43.2058 34.4158 43.4819 34.4565 43.7637H36.2906C36.2477 43.2597 36.123 42.766 35.9213 42.302C35.7381 41.8781 35.4669 41.4982 35.1255 41.1873C34.7841 40.8764 34.3804 40.6418 33.9414 40.499C33.4353 40.3303 32.9044 40.2485 32.3711 40.2569C31.7666 40.2451 31.1686 40.3826 30.6301 40.6573C30.1243 40.9202 29.6841 41.2935 29.3422 41.7497C28.9784 42.2392 28.7052 42.79 28.5354 43.3758C28.345 44.0268 28.2509 44.7023 28.2561 45.3806V46.7832C28.2565 47.4621 28.3547 48.1373 28.5477 48.788C28.7194 49.3757 28.9993 49.9262 29.3733 50.411C29.7424 50.8863 30.2182 51.2679 30.7621 51.5251C31.3061 51.7823 31.903 51.9077 32.5045 51.8913C32.9077 51.894 33.3101 51.8555 33.7055 51.7765C34.0645 51.703 34.4149 51.5927 34.7514 51.4476C35.0596 51.3152 35.3522 51.1486 35.6234 50.951ZM40.874 46.669H45.529L45.5259 45.167H40.871V41.9706H46.2676V40.4189H38.9965V51.7429H46.3266V50.2223H40.874V46.669ZM51.3026 40.422L52.7083 45.3128L54.26 40.422H56.5751V51.7429H54.8186V47.8545L54.9272 42.8891L53.1863 48.3293H52.2056L50.626 43.0877L50.7347 47.8638V51.7429H48.9781V40.4189L51.3026 40.422ZM66.2724 40.4211H59.535V41.9728H61.9308V50.209H59.535V51.7607H66.2724V50.209H63.8208V41.9728H66.2724V40.4211ZM76.8077 51.7429H74.927L71.24 43.9505V51.7429H69.3501V40.4189H71.24L74.9114 48.1772V40.4189H76.8014L76.8077 51.7429ZM86.6613 40.4211H79.9265L79.9329 41.9728H82.3285V50.209H79.9329V51.7607H86.667V50.209H84.2184V41.9728H86.6613V40.4211Z" fill="#000000"/>
</g>
</g>
</svg>
