
<svg width="114" height="114" viewBox="0 0 114 114" fill="none" xmlns="http://www.w3.org/2000/svg">
<path d="M57.2466 113.43C88.4315 113.43 113.712 88.1656 113.712 56.9999C113.712 25.8341 88.4315 0.569336 57.2466 0.569336C26.0616 0.569336 0.78125 25.8341 0.78125 56.9999C0.78125 88.1656 26.0616 113.43 57.2466 113.43Z" fill="url(#paint0_radial_1_9919)"/>
<path opacity="0.7" d="M57.2486 99.7928C80.8973 99.7928 100.068 80.6335 100.068 56.9993C100.068 33.3651 80.8973 14.2058 57.2486 14.2058C33.5998 14.2058 14.4287 33.3651 14.4287 56.9993C14.4287 80.6335 33.5998 99.7928 57.2486 99.7928Z" fill="url(#paint1_radial_1_9919)"/>
<path d="M17.0427 33.1431L16.7929 33.5465L13.6025 29.4361L13.8524 29.0328L18.9454 30.1276L18.6956 30.5309L14.2368 29.5322L14.2175 29.5514L17.0427 33.1431ZM15.6205 31.8562L16.9082 29.8011L17.2541 30.0123L15.9665 32.0675L15.6205 31.8562Z" fill="#FEFEFE"/>
<path d="M15.274 27.554L14.9473 27.3236L17.0614 24.4809L17.3881 24.7114L16.4656 25.9598L20.0787 28.6296L19.8097 28.9946L16.1965 26.3056L15.274 27.554Z" fill="#FEFEFE"/>
<path d="M18.0233 23.9231L17.7158 23.6542L20.0798 21.0036L20.3873 21.2725L19.3494 22.4249L22.6935 25.4212L22.4052 25.7478L19.0611 22.7514L18.0233 23.9231Z" fill="#FEFEFE"/>
<path d="M24.3841 23.6367L21.04 20.0834L23.1157 18.1435L23.3848 18.4316L21.6358 20.0642L22.9043 21.4087L24.5379 19.8721L24.807 20.1602L23.1733 21.6968L24.4418 23.0413L26.2099 21.3703L26.479 21.6584L24.3841 23.6367Z" fill="#FEFEFE"/>
<path d="M27.0584 16.4733C26.8662 16.2812 26.6355 16.1852 26.3665 16.1852C26.0974 16.1852 25.8476 16.3004 25.5785 16.4925C25.4055 16.627 25.271 16.7806 25.1749 16.9535C25.0788 17.1264 25.0404 17.2992 25.0596 17.4529C25.0596 17.6257 25.1172 17.7794 25.2326 17.9138C25.3094 18.0099 25.4055 18.0867 25.5016 18.1251C25.5977 18.1635 25.713 18.1827 25.8283 18.1827C25.9437 18.1827 26.059 18.1635 26.1935 18.1251C26.3088 18.0867 26.4241 18.0483 26.5394 18.0099L27.0391 17.7986C27.1929 17.741 27.3466 17.6834 27.5004 17.6449C27.6734 17.6065 27.8271 17.5873 28.0001 17.5681C28.1731 17.5681 28.3268 17.6065 28.4806 17.6642C28.6343 17.7218 28.7688 17.837 28.9034 18.0099C29.0571 18.2212 29.1532 18.4324 29.1724 18.6821C29.1917 18.9318 29.1532 19.1815 29.0187 19.4312C28.9034 19.6809 28.692 19.9114 28.4229 20.1419C28.1538 20.3532 27.904 20.4876 27.6349 20.5452C27.3659 20.6028 27.1352 20.6028 26.9046 20.5452C26.674 20.4876 26.4626 20.3532 26.2896 20.1611L26.6548 19.873C26.7893 20.0074 26.943 20.1035 27.116 20.1419C27.289 20.1803 27.462 20.1611 27.6541 20.1035C27.8463 20.0458 28.0193 19.9498 28.1923 19.8154C28.3845 19.6617 28.519 19.4888 28.6343 19.316C28.7304 19.1431 28.7881 18.951 28.7688 18.759C28.7688 18.5669 28.692 18.4132 28.5767 18.2596C28.4806 18.1251 28.346 18.0483 28.2115 18.0099C28.077 17.9715 27.9232 17.9715 27.7502 18.0099C27.5773 18.0483 27.4043 18.1059 27.2121 18.1827L26.6548 18.4132C26.2896 18.5669 25.9437 18.6245 25.6554 18.5861C25.3671 18.5669 25.1172 18.4132 24.9251 18.1827C24.7713 17.9715 24.6752 17.7602 24.656 17.5105C24.6368 17.2608 24.6944 17.0303 24.8097 16.7806C24.9251 16.5501 25.098 16.3389 25.3479 16.1468C25.5785 15.9547 25.8283 15.8395 26.0782 15.7819C26.328 15.7242 26.5779 15.7242 26.8085 15.8011C27.0391 15.8779 27.2313 15.9931 27.3851 16.1852L27.0584 16.4733Z" fill="#FEFEFE"/>
<path d="M27.8032 14.8962L27.5918 14.5697L30.5707 12.6106L30.7821 12.9371L29.4753 13.7822L31.9353 17.5468L31.5701 17.7965L29.1101 14.0319L27.8032 14.8962Z" fill="#FEFEFE"/>
<path d="M33.547 16.5292L33.1434 16.7597L32.3555 11.6122L32.7783 11.3817L36.6797 14.8198L36.2761 15.0503L32.8552 11.9963L32.8167 12.0155L33.547 16.5292ZM32.932 14.7238L35.0653 13.5521L35.2575 13.8978L33.1242 15.0695L32.932 14.7238Z" fill="#FEFEFE"/>
<path d="M34.7807 10.7488L34.627 10.3839L37.8942 8.98175L38.0479 9.34669L36.6257 9.96131L38.3939 14.0908L37.9903 14.2637L36.2221 10.1342L34.7807 10.7488Z" fill="#FEFEFE"/>
<path d="M39.3955 8.3866L41.1252 12.9579L40.7024 13.1116L38.9727 8.54025L39.3955 8.3866Z" fill="#FEFEFE"/>
<path d="M45.3928 9.03833C45.5465 9.5185 45.585 9.97948 45.5081 10.3828C45.4312 10.7862 45.2774 11.1511 45.0468 11.4392C44.797 11.7273 44.4895 11.9386 44.0859 12.0538C43.6823 12.1691 43.3171 12.1691 42.952 12.0731C42.5868 11.9578 42.2601 11.7657 41.991 11.4392C41.7027 11.1319 41.4913 10.7286 41.3568 10.2484C41.2222 9.7682 41.1646 9.30723 41.2415 8.90388C41.2991 8.50053 41.4721 8.13559 41.7027 7.84749C41.9526 7.55938 42.2601 7.3481 42.6637 7.23286C43.0673 7.11761 43.4324 7.11761 43.7976 7.21365C44.1627 7.32889 44.4895 7.52096 44.7585 7.84749C45.0468 8.1548 45.2582 8.53894 45.3928 9.03833ZM44.9699 9.15357C44.8546 8.73101 44.6624 8.40449 44.4318 8.13559C44.2012 7.8859 43.9513 7.71304 43.6438 7.617C43.3556 7.52096 43.048 7.54017 42.7405 7.617C42.433 7.71304 42.1832 7.86669 41.991 8.09718C41.7988 8.32766 41.6643 8.61577 41.6258 8.9615C41.5682 9.30723 41.6066 9.69137 41.7412 10.1139C41.8565 10.5365 42.0487 10.863 42.2793 11.1319C42.5099 11.3816 42.7598 11.5545 43.0673 11.6505C43.3556 11.7465 43.6631 11.7273 43.9706 11.6505C44.2781 11.5545 44.5279 11.4008 44.7201 11.1703C44.9123 10.9398 45.0468 10.6517 45.0853 10.306C45.1429 9.96027 45.1045 9.57613 44.9699 9.15357Z" fill="#FEFEFE"/>
<path d="M49.8893 5.67804L50.7734 10.4798L50.3506 10.5567L46.7758 7.04175H46.7374L47.4677 11.0752L47.0257 11.1521L46.1416 6.35029L46.5644 6.27346L50.1584 9.78836H50.1968L49.4665 5.75487L49.8893 5.67804Z" fill="#FEFEFE"/>
<path d="M57.7112 7.57972C57.7304 8.09831 57.6535 8.54007 57.4805 8.92422C57.3076 9.30836 57.0769 9.59647 56.7694 9.82695C56.4619 10.0382 56.0968 10.1535 55.6932 10.1727C55.2896 10.1919 54.9052 10.0959 54.5977 9.90378C54.271 9.71171 54.0211 9.4236 53.8289 9.05867C53.6368 8.69373 53.5214 8.25197 53.5214 7.73338C53.5022 7.23399 53.5791 6.77302 53.7521 6.38888C53.925 6.00473 54.1557 5.71663 54.4632 5.48614C54.7707 5.25566 55.1358 5.15962 55.5394 5.14041C55.943 5.12121 56.3274 5.21724 56.6349 5.40931C56.9616 5.60138 57.2115 5.88949 57.4037 6.25443C57.5959 6.61936 57.692 7.08033 57.7112 7.57972ZM57.2691 7.59893C57.2499 7.15716 57.173 6.79223 57.0193 6.48491C56.8655 6.1776 56.6541 5.94711 56.4043 5.79346C56.1544 5.6398 55.8469 5.56297 55.5394 5.58218C55.2127 5.60138 54.9436 5.67821 54.6938 5.85108C54.4439 6.02394 54.2518 6.27363 54.1172 6.58095C53.9827 6.88826 53.925 7.2724 53.925 7.71417C53.9443 8.15593 54.0211 8.52087 54.1749 8.82818C54.3286 9.1355 54.54 9.36598 54.7899 9.51964C55.0397 9.6733 55.3472 9.75012 55.6547 9.73092C55.9815 9.71171 56.2698 9.63488 56.5004 9.46202C56.7502 9.28915 56.9424 9.03946 57.0769 8.73215C57.2307 8.40562 57.2884 8.04069 57.2691 7.59893Z" fill="#FEFEFE"/>
<path d="M58.7637 10.0773L59.0712 5.19873L61.8964 5.37159L61.8771 5.77494L59.494 5.62129L59.3787 7.46517L61.5312 7.59962L61.512 8.00297L59.3402 7.86852L59.2057 10.0965L58.7637 10.0773Z" fill="#FEFEFE"/>
<path d="M68.8193 8.04025L68.3773 7.94422C68.3773 7.77135 68.3388 7.6177 68.2812 7.44483C68.2235 7.29118 68.1466 7.13752 68.0313 7.02228C67.916 6.88783 67.8007 6.79179 67.6469 6.69575C67.4932 6.59972 67.3202 6.5421 67.128 6.50368C66.8205 6.44606 66.5322 6.46527 66.244 6.58051C65.9557 6.69575 65.725 6.88783 65.5136 7.15673C65.3022 7.42563 65.1485 7.79056 65.0716 8.23233C64.9755 8.67409 64.9755 9.05823 65.0716 9.40396C65.1677 9.73048 65.3214 9.99938 65.5329 10.2107C65.7443 10.4219 66.0133 10.5564 66.3208 10.614C66.513 10.6524 66.686 10.6524 66.859 10.6332C67.0319 10.614 67.1857 10.5564 67.3394 10.4796C67.4932 10.4027 67.6277 10.3067 67.7238 10.1722C67.8391 10.057 67.916 9.90335 67.9929 9.74969L68.4349 9.84572C68.358 10.057 68.2427 10.2491 68.089 10.4219C67.9352 10.5948 67.7815 10.7293 67.5893 10.8445C67.3971 10.9597 67.1857 11.0366 66.9551 11.075C66.7244 11.1134 66.4746 11.1134 66.2247 11.0558C65.8211 10.9789 65.4752 10.8061 65.2061 10.5372C64.9371 10.2683 64.7449 9.94176 64.6488 9.53841C64.5527 9.13506 64.5335 8.67409 64.6488 8.1747C64.7449 7.67532 64.9178 7.25276 65.1677 6.92624C65.4175 6.59972 65.725 6.35003 66.071 6.21558C66.4169 6.08113 66.8013 6.04271 67.2049 6.11954C67.4548 6.17716 67.6854 6.25399 67.8968 6.36923C68.089 6.48448 68.2619 6.63813 68.3965 6.811C68.531 6.98386 68.6271 7.17593 68.704 7.38721C68.8001 7.57928 68.8385 7.80977 68.8193 8.04025Z" fill="#FEFEFE"/>
<path d="M73.6429 10.4027C73.4892 10.8829 73.2778 11.2863 72.9895 11.5936C72.7012 11.9009 72.3745 12.1122 72.0093 12.2082C71.6441 12.3042 71.2598 12.3042 70.8754 12.189C70.4718 12.0738 70.1643 11.8625 69.9144 11.5744C69.6646 11.2863 69.5108 10.9405 69.4532 10.518C69.3955 10.1146 69.434 9.65366 69.5877 9.17348C69.7415 8.6933 69.9529 8.28995 70.2412 7.98264C70.5294 7.67532 70.8562 7.46404 71.2213 7.36801C71.5865 7.27197 71.9709 7.27197 72.3552 7.38721C72.7588 7.50246 73.0664 7.71374 73.3162 8.00184C73.566 8.28995 73.7198 8.63568 73.7775 9.05823C73.8351 9.48079 73.7775 9.92256 73.6429 10.4027ZM73.2201 10.2875C73.3546 9.86493 73.3931 9.48079 73.3354 9.15427C73.2778 8.80854 73.1624 8.52044 72.9703 8.28995C72.7781 8.05946 72.5282 7.8866 72.2207 7.79056C71.9132 7.69453 71.6249 7.69453 71.3174 7.77136C71.0291 7.84819 70.7601 8.02105 70.5294 8.27074C70.2988 8.52043 70.1066 8.86616 69.9913 9.28872C69.8568 9.71128 69.8183 10.0954 69.876 10.4219C69.9337 10.7677 70.049 11.0558 70.2412 11.2863C70.4334 11.5167 70.6832 11.6896 70.9907 11.7856C71.2982 11.8817 71.6057 11.8817 71.894 11.8049C72.1823 11.728 72.4513 11.5552 72.682 11.2863C72.9126 11.0366 73.0856 10.6908 73.2201 10.2875Z" fill="#FEFEFE"/>
<path d="M75.7767 8.57666L76.2572 8.78794L76.1803 13.3977L76.2188 13.4169L79.5629 10.2285L80.0434 10.4398L78.0446 14.915L77.6602 14.7421L79.2362 11.1312L79.1977 11.112L76.1227 14.0699L75.7575 13.9162L75.8344 9.63305L75.796 9.61384L74.2008 13.2248L73.8164 13.0519L75.7767 8.57666Z" fill="#FEFEFE"/>
<path d="M79.084 15.4943L81.5056 11.2495L82.8701 12.037C83.1776 12.2099 83.389 12.4019 83.5236 12.6324C83.6581 12.8629 83.7158 13.1126 83.7158 13.3623C83.6965 13.612 83.6389 13.8617 83.4851 14.1114C83.3506 14.3611 83.1584 14.5531 82.947 14.6876C82.7356 14.822 82.4857 14.8989 82.2167 14.8989C81.9476 14.8989 81.6593 14.822 81.371 14.6492L80.2948 14.0345L80.487 13.6888L81.5632 14.3034C81.7939 14.4379 81.9861 14.4955 82.1975 14.4955C82.3897 14.4955 82.5626 14.4379 82.7164 14.3419C82.8701 14.2458 83.0047 14.0922 83.1007 13.9001C83.1968 13.708 83.2737 13.5352 83.2737 13.3431C83.2929 13.151 83.2353 12.9782 83.1392 12.8053C83.0431 12.6324 82.8701 12.498 82.6587 12.3635L81.6785 11.8065L79.4491 15.7056L79.084 15.4943Z" fill="#FEFEFE"/>
<path d="M82.6182 17.5865L85.3857 13.553L85.7509 13.8027L83.214 17.5097L85.1359 18.835L84.9052 19.1615L82.6182 17.5865Z" fill="#FEFEFE"/>
<path d="M88.9945 16.1474L85.9963 20.0081L85.6504 19.7392L88.6486 15.8785L88.9945 16.1474Z" fill="#FEFEFE"/>
<path d="M86.9827 20.7549L86.6367 20.4476L91.2108 17.9699L91.576 18.2772L89.6541 23.1174L89.3082 22.8101L91.0186 18.5653L90.9994 18.5461L86.9827 20.7549ZM88.4625 19.5833L90.2691 21.1967L90 21.504L88.1742 19.8906L88.4625 19.5833Z" fill="#FEFEFE"/>
<path d="M96.3412 23.1355L92.7472 26.4583L92.4589 26.1126L93.516 21.2148L93.4968 21.1956L90.4794 23.9806L90.1719 23.6541L93.7658 20.3312L94.0541 20.6578L92.9971 25.5748L93.0163 25.594L96.0337 22.809L96.3412 23.1355Z" fill="#FEFEFE"/>
<path d="M98.472 28.4192L98.2029 28.0543C98.3182 27.9198 98.4143 27.7854 98.472 27.6317C98.5296 27.4781 98.5681 27.3244 98.5681 27.1515C98.5681 26.9787 98.5489 26.8058 98.5104 26.6522C98.4528 26.4793 98.3759 26.3256 98.2606 26.172C98.0684 25.9223 97.8378 25.7494 97.5687 25.6342C97.2804 25.5189 96.9729 25.4997 96.6462 25.5766C96.3002 25.6342 95.9543 25.807 95.5891 26.0759C95.224 26.3448 94.9549 26.633 94.8012 26.9403C94.6474 27.2476 94.5705 27.5549 94.5897 27.843C94.609 28.1503 94.7243 28.4192 94.8973 28.6689C95.0126 28.8226 95.1471 28.957 95.2816 29.0531C95.4354 29.1491 95.5891 29.2259 95.7429 29.2643C95.8966 29.3027 96.0696 29.322 96.2426 29.3027C96.4155 29.2835 96.5693 29.2451 96.7231 29.1683L96.9921 29.5332C96.7807 29.6293 96.5693 29.7061 96.3579 29.7253C96.1465 29.7445 95.9159 29.7445 95.7044 29.6869C95.493 29.6293 95.2816 29.5524 95.0894 29.418C94.8973 29.2835 94.7243 29.1299 94.5705 28.9186C94.3207 28.5921 94.1861 28.2271 94.1669 27.8622C94.1477 27.4781 94.2246 27.1131 94.4168 26.7482C94.609 26.3833 94.9165 26.0375 95.3201 25.7302C95.7237 25.4229 96.1465 25.2308 96.5501 25.154C96.9537 25.0772 97.3381 25.0964 97.7032 25.2308C98.0684 25.3653 98.3567 25.5958 98.6065 25.9223C98.7603 26.1336 98.8756 26.3448 98.9332 26.5753C98.9909 26.8058 99.0293 27.0171 99.0101 27.2476C98.9909 27.4781 98.9332 27.6893 98.8564 27.8814C98.7795 28.0735 98.6257 28.2464 98.472 28.4192Z" fill="#FEFEFE"/>
<path d="M96.2822 31.2238L100.472 28.6884L101.952 31.1085L101.606 31.3198L100.357 29.2838L98.7807 30.2442L99.9531 32.1649L99.6071 32.3762L98.4348 30.4555L96.8588 31.4158L98.1272 33.4902L97.7813 33.7015L96.2822 31.2238Z" fill="#FEFEFE"/>
<path d="M74.2898 87.79C74.6357 87.8284 74.8856 87.8476 75.3468 87.7132C76.9228 87.0986 83.265 75.3438 88.9731 72.117C89.0115 72.0978 89.05 72.0594 89.0884 72.0402C89.1268 72.0018 89.1268 71.9441 89.1268 71.9441C89.1268 71.9441 89.146 71.6944 88.3773 71.6176C83.6686 70.9838 77.6915 80.3761 74.6934 84.0062C74.6549 84.0446 74.482 83.987 74.482 83.987C74.482 83.987 72.9637 81.759 71.5415 80.8178C71.503 80.7986 71.3493 80.7218 71.1571 80.7218C71.0418 80.7026 70.3307 80.7794 69.9655 81.0867C69.5427 81.4517 69.5235 81.6821 69.4658 82.1815C69.4658 82.2199 69.4658 82.3928 69.5043 82.4696C69.8118 83.1611 71.234 85.6388 72.4832 87.0601C72.6946 87.233 72.9829 87.6556 74.2898 87.79Z" fill="#2BBC5D"/>
<path d="M38.6387 75.7851L39.9263 76.1693C39.8495 76.5342 39.7149 76.8223 39.5227 77.072C39.3306 77.3025 39.1191 77.4946 38.8309 77.6098C38.5618 77.7443 38.2159 77.8019 37.793 77.8019C37.2741 77.8019 36.8705 77.7443 36.5246 77.5906C36.1979 77.437 35.9288 77.1873 35.6982 76.8031C35.4675 76.4382 35.333 75.958 35.333 75.3818C35.333 74.6135 35.5444 74.0181 35.948 73.5955C36.3516 73.173 36.9474 72.9809 37.6969 72.9809C38.2927 72.9809 38.7348 73.1153 39.0807 73.3458C39.4266 73.5763 39.6765 73.9413 39.8302 74.4598L38.5426 74.7287C38.5041 74.5751 38.4657 74.4791 38.3888 74.4022C38.3119 74.287 38.2159 74.2102 38.0813 74.1525C37.9468 74.0949 37.8315 74.0757 37.6969 74.0757C37.3702 74.0757 37.1204 74.2102 36.9474 74.479C36.8129 74.6711 36.7552 74.9976 36.7552 75.401C36.7552 75.9196 36.8321 76.2845 36.9858 76.4766C37.1396 76.6687 37.3702 76.7839 37.6393 76.7839C37.9083 76.7839 38.139 76.7071 38.2543 76.5534C38.4657 76.2845 38.581 76.0732 38.6387 75.7851Z" fill="#FEFEFE"/>
<path d="M40.4287 75.3437C40.4287 74.5754 40.6401 73.98 41.0629 73.5574C41.4858 73.1349 42.0815 72.9236 42.8503 72.9236C43.6383 72.9236 44.2341 73.1349 44.6569 73.5382C45.0797 73.9608 45.2911 74.537 45.2911 75.3053C45.2911 75.8623 45.2142 76.304 45.022 76.6498C44.8299 76.9955 44.58 77.2644 44.2148 77.4565C43.8689 77.6485 43.4269 77.7638 42.908 77.7638C42.3698 77.7638 41.947 77.687 41.5818 77.5141C41.2359 77.3412 40.9668 77.0915 40.7362 76.7074C40.5248 76.304 40.4287 75.9007 40.4287 75.3437ZM41.8894 75.3437C41.8894 75.8046 41.9662 76.1504 42.1392 76.3617C42.3122 76.5729 42.5428 76.6882 42.8695 76.6882C43.1962 76.6882 43.4269 76.5729 43.5998 76.3809C43.7728 76.1696 43.8497 75.8047 43.8497 75.2861C43.8497 74.8443 43.7728 74.5178 43.5806 74.3257C43.4077 74.1144 43.1578 74.0184 42.8503 74.0184C42.5428 74.0184 42.3122 74.1336 42.1392 74.3449C41.9662 74.537 41.8894 74.8827 41.8894 75.3437Z" fill="#FEFEFE"/>
<path d="M46.0755 72.998H47.9782L48.7085 75.8598L49.4389 72.998H51.3415V77.6845H50.15V74.0928L49.2275 77.6845H48.1512L47.2287 74.0928V77.6845H46.0371V72.998H46.0755Z" fill="#FEFEFE"/>
<path d="M52.2617 73.0008H54.6833C55.2214 73.0008 55.6058 73.1352 55.8557 73.3849C56.1055 73.6346 56.24 73.9804 56.24 74.4605C56.24 74.9215 56.0863 75.3056 55.8172 75.5745C55.5482 75.8434 55.0869 75.9779 54.5103 75.9779H53.7224V77.7257H52.2617V73.0008ZM53.7224 75.0175H54.0875C54.3566 75.0175 54.5488 74.9791 54.6833 74.8639C54.7986 74.7486 54.8563 74.6526 54.8563 74.4989C54.8563 74.3453 54.8178 74.23 54.7025 74.1148C54.5872 73.9996 54.4335 73.9612 54.1452 73.9612H53.7416V74.9983H53.7224V75.0175Z" fill="#FEFEFE"/>
<path d="M57.0098 72.998H58.4704V76.5321H60.7382V77.6845H57.029L57.0098 72.998Z" fill="#FEFEFE"/>
<path d="M61.4482 72.998H62.9089V77.6845H61.4482V72.998Z" fill="#FEFEFE"/>
<path d="M66.8301 76.9162H65.1773L64.9467 77.6845H63.4668L65.2349 72.998H66.8109L68.579 77.6845H67.08L66.8301 76.9162ZM66.5226 75.8983L66.0037 74.208L65.4848 75.8983H66.5226Z" fill="#FEFEFE"/>
<path d="M69.0586 72.998H70.4039L72.1721 75.6102V72.998H73.5366V77.6845H72.1721L70.4231 75.1108V77.6845H69.0586V72.998Z" fill="#FEFEFE"/>
<path d="M74.1748 72.998H78.5952V74.1504H77.1153V77.6845H75.6547V74.1504H74.194V72.998H74.1748Z" fill="#FEFEFE"/>
<path d="M74.2734 34.6353C76.3683 34.6353 78.0596 33.0412 78.0596 31.0628C78.0596 29.0845 76.3683 27.4903 74.2734 27.4903C72.1786 27.4903 70.4873 29.0845 70.4873 31.0628C70.4873 33.0412 72.1978 34.6353 74.2734 34.6353ZM71.1792 36.1911H77.3869V52.3827H71.1792V36.1911Z" fill="#FEFEFE"/>
<path d="M68.1194 40.9174C68.1771 40.9366 68.2155 40.9174 68.2155 40.8597V36.7494C68.2155 36.6918 68.1771 36.6342 68.1194 36.615C68.1194 36.615 67.3122 36.0772 64.833 35.9427C64.7177 35.8659 62.5267 35.8467 61.9501 35.9427C52.9172 36.6726 52.5713 43.203 52.5713 43.4911V45.0853C52.5713 45.2774 52.5713 51.9615 61.9501 52.5377C62.8727 52.6145 64.66 52.5377 64.833 52.5377C66.9855 52.5377 68.4846 51.8846 68.4846 51.8846C68.5423 51.8654 68.5807 51.8078 68.5807 51.7694V47.928C68.5807 47.8703 68.5423 47.8511 68.5038 47.8895C68.5038 47.8895 67.8312 48.4273 64.8907 48.7155C64.0642 48.8115 63.6414 48.7731 63.3531 48.7155C59.1634 48.0048 58.9712 44.9701 58.9712 44.9701C58.9712 44.9124 58.952 44.8356 58.952 44.7972V43.6256C58.952 43.5679 58.952 43.4911 58.9712 43.4527C58.9712 43.4527 59.2595 40.1683 63.3531 39.8225H64.8907C66.6588 40.0338 68.1194 40.9174 68.1194 40.9174Z" fill="#FEFEFE"/>
<path d="M35.334 52.3242C35.334 52.3819 35.3724 52.4203 35.4301 52.4203H41.4648C41.5225 52.4203 41.5609 52.3819 41.5609 52.3242V47.6185C41.5609 47.5609 41.5994 47.5225 41.657 47.5225C41.657 47.5225 51.3049 48.2139 51.3049 41.7603C51.3049 36.6512 45.251 36.0942 43.2714 36.1902C43.233 36.1902 35.4493 36.1902 35.4493 36.1902C35.3916 36.1902 35.3532 36.2287 35.3532 36.2863V52.3242H35.334ZM41.4456 43.9307V39.7052H42.9255C42.9255 39.7052 45.078 39.8012 45.251 41.2609C45.2894 41.3762 45.2894 42.0868 45.251 42.1253C44.9627 43.8347 43.0984 43.9307 43.0984 43.9307H41.4456Z" fill="#FEFEFE"/>
<path d="M35.1787 55.1376H42.1552C43.539 55.1376 44.6537 55.3296 45.4801 55.6946C46.3257 56.0787 47.0368 56.6165 47.5749 57.2888C48.1323 57.9994 48.5359 58.8061 48.7665 59.7281C49.0164 60.65 49.1509 61.6296 49.1509 62.6668C49.1509 64.2802 48.9587 65.5478 48.5936 66.4506C48.2284 67.3533 47.7095 68.1024 47.056 68.717C46.4026 69.3124 45.6915 69.7158 44.9419 69.9271C43.9233 70.196 42.9816 70.3304 42.136 70.3304H35.1787V55.1376ZM39.8874 58.5756V66.8731H41.0405C42.0207 66.8731 42.7318 66.7579 43.1354 66.5466C43.539 66.3353 43.8849 65.9512 44.1155 65.4134C44.3462 64.8756 44.4807 63.9921 44.4807 62.7628C44.4807 61.1494 44.2308 60.0546 43.6927 59.4592C43.1546 58.8638 42.3089 58.5564 41.0597 58.5564H39.8874V58.5756Z" fill="#FEFEFE"/>
<path d="M50.4746 65.319L54.9526 65.0501C55.0679 65.7799 55.2601 66.3369 55.5484 66.7211C56.0481 67.3357 56.7208 67.643 57.6241 67.643C58.2775 67.643 58.8156 67.4894 59.1808 67.182C59.546 66.8555 59.7381 66.4906 59.7381 66.0872C59.7381 65.7031 59.5652 65.3382 59.2192 65.0116C58.8733 64.6851 58.0661 64.4162 56.7976 64.1281C54.722 63.6671 53.2806 63.0333 52.3773 62.265C51.474 61.4967 51.0512 60.5172 51.0512 59.3263C51.0512 58.5388 51.2818 57.809 51.7431 57.0983C52.1851 56.3876 52.877 55.8691 53.7995 55.4465C54.722 55.0239 55.952 54.8511 57.528 54.8511C59.4691 54.8511 60.9682 55.216 61.9676 55.9459C62.9862 56.6757 63.5819 57.8282 63.7741 59.4032L59.3346 59.6529C59.2 58.9614 58.9694 58.4812 58.585 58.1547C58.2006 57.8282 57.6817 57.6937 57.0283 57.6937C56.4709 57.6937 56.0673 57.809 55.7983 58.0395C55.5292 58.2699 55.3947 58.5581 55.3947 58.8846C55.3947 59.1151 55.51 59.3455 55.7406 59.5376C55.952 59.7297 56.4901 59.9218 57.3166 60.0946C59.373 60.5364 60.8336 60.9974 61.7369 61.4391C62.6402 61.8809 63.2744 62.4571 63.678 63.1293C64.0816 63.7824 64.2738 64.5507 64.2738 65.3958C64.2738 66.3754 64.0048 67.2781 63.4666 68.0848C62.9285 68.9107 62.1597 69.5445 61.1988 69.9671C60.2378 70.3896 59.0078 70.6009 57.528 70.6009C54.9526 70.6009 53.146 70.1015 52.1467 69.1028C51.1665 68.1232 50.6284 66.8555 50.4746 65.319Z" fill="#FEFEFE"/>
<path d="M65.4912 65.3189L69.9692 65.05C70.0845 65.7799 70.2767 66.3369 70.565 66.721C71.0647 67.3356 71.7374 67.643 72.6407 67.643C73.2941 67.643 73.8322 67.4893 74.1974 67.182C74.5626 66.8747 74.7548 66.4905 74.7548 66.0872C74.7548 65.703 74.5818 65.3381 74.2358 65.0116C73.8899 64.6851 73.0827 64.4162 71.8143 64.1281C69.7386 63.6671 68.2972 63.0333 67.3939 62.265C66.5098 61.4967 66.0678 60.5171 66.0678 59.3263C66.0678 58.5388 66.2984 57.8089 66.7597 57.0982C67.2017 56.3876 67.8936 55.869 68.8161 55.4464C69.7386 55.0431 70.9686 54.851 72.5446 54.851C74.4857 54.851 75.9848 55.2159 76.9842 55.9458C78.0028 56.6757 78.5985 57.8281 78.7907 59.4031L74.3512 59.6528C74.2166 58.9613 73.986 58.4812 73.6016 58.1546C73.2172 57.8281 72.6983 57.6937 72.0449 57.6937C71.4875 57.6937 71.0839 57.8089 70.8149 58.0394C70.5458 58.2699 70.4113 58.558 70.4113 58.8845C70.4113 59.115 70.5266 59.3455 70.7572 59.5376C70.9686 59.7296 71.5067 59.9217 72.3332 60.0946C74.3896 60.5363 75.8502 60.9973 76.7535 61.4391C77.6568 61.8808 78.291 62.457 78.6946 63.1293C79.0982 63.7823 79.2904 64.5506 79.2904 65.3957C79.2904 66.3753 79.0214 67.278 78.4832 68.0847C77.9451 68.9106 77.1763 69.5445 76.2154 69.967C75.2544 70.3896 74.0244 70.6009 72.5446 70.6009C69.9692 70.6009 68.1626 70.1015 67.1633 69.1027C66.1831 68.1231 65.6257 66.8555 65.4912 65.3189Z" fill="#FEFEFE"/>
<path d="M17.6221 90.7672L21.2352 87.4636L22.2923 88.6352C22.5229 88.8849 22.6767 89.1538 22.7343 89.4035C22.792 89.6532 22.792 89.9029 22.7151 90.1334C22.6382 90.3638 22.4845 90.5751 22.2731 90.7672C22.0617 90.9593 21.831 91.0937 21.6004 91.1513C21.3506 91.209 21.1199 91.1897 20.8701 91.1129C20.6202 91.0169 20.3896 90.844 20.159 90.5943L19.2557 89.5956L19.5632 89.3267L20.4665 90.3062C20.6394 90.4983 20.8124 90.6135 20.9854 90.6904C21.1584 90.7672 21.3313 90.7672 21.5043 90.7288C21.6773 90.6904 21.8502 90.5943 22.004 90.4407C22.1577 90.3062 22.2731 90.1334 22.3307 89.9605C22.3884 89.7876 22.3884 89.6148 22.3499 89.4227C22.2923 89.2306 22.1962 89.0578 22.0232 88.8657L21.2737 88.0398L17.9488 91.0553L17.6221 90.7672ZM20.7163 90.8632L19.8899 93.2449L19.544 92.8608L20.3704 90.4983L20.7163 90.8632Z" fill="#FEFEFE"/>
<path d="M20.792 94.1083L24.1169 90.5165L26.2117 92.4373L25.9427 92.7254L24.1938 91.112L22.9445 92.4565L24.5973 93.9738L24.3283 94.2619L22.6755 92.7446L21.4262 94.1083L23.2136 95.7601L22.9445 96.0482L20.792 94.1083Z" fill="#FEFEFE"/>
<path d="M24.041 97.0279L27.0392 93.1672L28.2884 94.1276C28.5575 94.3389 28.7497 94.5694 28.8458 94.8191C28.9419 95.0687 28.9803 95.3184 28.9226 95.5681C28.8842 95.8178 28.7689 96.0675 28.5959 96.2788C28.4229 96.4901 28.2115 96.6629 27.9809 96.7782C27.7503 96.8934 27.5004 96.9126 27.2314 96.8934C26.9623 96.855 26.6932 96.7398 26.4242 96.5285L25.444 95.7602L25.6938 95.4337L26.674 96.1828C26.8854 96.3364 27.0776 96.4324 27.2698 96.4517C27.462 96.4709 27.635 96.4517 27.8079 96.3748C27.9809 96.298 28.1347 96.1635 28.25 96.0099C28.3845 95.837 28.4614 95.6642 28.4998 95.4913C28.5383 95.2992 28.519 95.1264 28.4422 94.9535C28.3653 94.7806 28.2308 94.6078 28.0193 94.4541L27.1353 93.7627L24.387 97.316L24.041 97.0279Z" fill="#FEFEFE"/>
<path d="M32.416 99.8703C32.147 100.293 31.8395 100.619 31.4743 100.85C31.1091 101.08 30.744 101.176 30.3788 101.196C29.9944 101.196 29.6293 101.1 29.2833 100.869C28.9374 100.658 28.6876 100.37 28.5146 100.024C28.3608 99.6782 28.3032 99.2941 28.3416 98.8908C28.38 98.4682 28.553 98.0456 28.8221 97.6231C29.0911 97.2005 29.3987 96.874 29.7638 96.6435C30.1098 96.413 30.4749 96.317 30.8593 96.2978C31.2437 96.2978 31.6088 96.3938 31.9548 96.6243C32.3007 96.8356 32.5506 97.1237 32.7235 97.4694C32.8773 97.8152 32.9349 98.1993 32.8965 98.6026C32.8581 99.006 32.7043 99.4286 32.416 99.8703ZM32.0509 99.6398C32.2815 99.2749 32.416 98.91 32.4737 98.5642C32.5121 98.2185 32.4737 97.9112 32.3584 97.6423C32.2238 97.3734 32.0317 97.1429 31.7626 96.97C31.4935 96.7972 31.2052 96.7203 30.8977 96.7203C30.5902 96.7203 30.3019 96.8164 30.0137 97.0085C29.7254 97.2005 29.4563 97.4694 29.2257 97.8536C28.9951 98.2185 28.8605 98.5834 28.8029 98.9292C28.7644 99.2749 28.8029 99.5822 28.9182 99.8511C29.0527 100.12 29.2449 100.351 29.514 100.523C29.783 100.696 30.0713 100.773 30.3788 100.773C30.6863 100.773 30.9746 100.677 31.2629 100.485C31.5704 100.274 31.8202 100.005 32.0509 99.6398Z" fill="#FEFEFE"/>
<path d="M32.4443 102.638L34.6353 98.2592L36.0383 98.9699C36.3458 99.1235 36.5764 99.3156 36.7302 99.5269C36.8839 99.7382 36.9608 99.9686 36.9608 100.218C36.9608 100.468 36.9031 100.718 36.7878 100.967C36.6533 101.217 36.4995 101.428 36.2881 101.563C36.0767 101.697 35.8461 101.774 35.5962 101.774C35.3272 101.774 35.0389 101.697 34.7314 101.544L33.5206 100.948L33.7128 100.583L34.9044 101.179C35.135 101.294 35.3464 101.352 35.5386 101.352C35.7308 101.352 35.9038 101.294 36.0383 101.198C36.192 101.102 36.3074 100.948 36.4034 100.756C36.4995 100.564 36.538 100.372 36.538 100.199C36.538 100.026 36.4803 99.8534 36.365 99.6997C36.2497 99.5461 36.0767 99.4116 35.8461 99.2964L34.8467 98.797L32.8287 102.811L32.4443 102.638ZM35.3656 101.64L35.4617 104.156L35.0005 103.925L34.9236 101.428L35.3656 101.64Z" fill="#FEFEFE"/>
<path d="M37.9712 100.349L38.1249 99.9841L41.4306 101.29L41.2768 101.655L39.8354 101.079L38.1826 105.247L37.7598 105.074L39.4126 100.906L37.9712 100.349Z" fill="#FEFEFE"/>
<path d="M47.408 105.481C47.2927 105.98 47.1005 106.384 46.8314 106.71C46.5624 107.037 46.2549 107.248 45.8897 107.383C45.5245 107.498 45.1594 107.517 44.7558 107.421C44.3522 107.325 44.0255 107.133 43.7564 106.864C43.5066 106.595 43.3336 106.249 43.2375 105.846C43.1606 105.443 43.1606 104.982 43.2951 104.482C43.4105 103.983 43.6027 103.58 43.8717 103.253C44.1408 102.927 44.4483 102.715 44.8134 102.581C45.1786 102.466 45.5438 102.446 45.9474 102.542C46.351 102.638 46.6777 102.83 46.9468 103.099C47.1966 103.368 47.3696 103.714 47.4657 104.117C47.5425 104.54 47.5233 104.982 47.408 105.481ZM46.9852 105.385C47.0813 104.962 47.1005 104.578 47.0428 104.233C46.966 103.887 46.8314 103.618 46.6392 103.387C46.4278 103.157 46.178 103.023 45.8705 102.946C45.563 102.869 45.2555 102.888 44.9672 102.984C44.6789 103.08 44.4291 103.272 44.2177 103.541C44.0062 103.81 43.8333 104.156 43.7372 104.578C43.6411 105.001 43.6219 105.385 43.6795 105.731C43.7564 106.076 43.8909 106.345 44.0831 106.576C44.2945 106.806 44.5444 106.941 44.8519 107.018C45.1594 107.094 45.4669 107.075 45.7552 106.979C46.0435 106.883 46.2933 106.691 46.5047 106.422C46.7161 106.153 46.8699 105.808 46.9852 105.385Z" fill="#FEFEFE"/>
<path d="M52.767 103.787L52.1136 108.627L51.6908 108.57L49.3845 104.114H49.3461L48.7887 108.166L48.3467 108.109L49.0001 103.268L49.4229 103.326L51.7484 107.782H51.7869L52.3442 103.729L52.767 103.787Z" fill="#FEFEFE"/>
<path d="M59.714 105.481H59.272C59.2336 105.308 59.1759 105.154 59.0798 105.02C58.9837 104.885 58.8876 104.751 58.7531 104.655C58.6185 104.539 58.4648 104.463 58.311 104.405C58.1381 104.347 57.9651 104.328 57.7729 104.328C57.4654 104.328 57.1771 104.405 56.9273 104.578C56.6774 104.732 56.466 104.981 56.3315 105.289C56.1777 105.596 56.1009 105.98 56.1201 106.441C56.1201 106.902 56.197 107.267 56.3507 107.593C56.5045 107.901 56.7159 108.131 56.9657 108.285C57.2156 108.438 57.5038 108.515 57.8114 108.515C58.0035 108.515 58.1765 108.477 58.3495 108.419C58.5225 108.362 58.657 108.285 58.7915 108.17C58.926 108.054 59.0221 107.939 59.1182 107.785C59.1951 107.632 59.272 107.478 59.2912 107.324H59.7332C59.6948 107.555 59.6179 107.766 59.5218 107.958C59.4065 108.15 59.272 108.323 59.1182 108.477C58.9453 108.631 58.7531 108.746 58.5417 108.823C58.3303 108.899 58.0804 108.957 57.8306 108.957C57.427 108.957 57.0618 108.861 56.7351 108.65C56.4084 108.438 56.1585 108.15 55.9856 107.785C55.8126 107.421 55.7165 106.96 55.6973 106.46C55.6973 105.942 55.7741 105.5 55.9663 105.135C56.1393 104.751 56.3891 104.463 56.7159 104.251C57.0234 104.04 57.3885 103.944 57.8114 103.925C58.0804 103.925 58.311 103.963 58.5225 104.04C58.7339 104.117 58.926 104.232 59.099 104.367C59.272 104.52 59.4065 104.674 59.5218 104.866C59.5795 105.058 59.6564 105.269 59.714 105.481Z" fill="#FEFEFE"/>
<path d="M64.9341 105.883C64.9918 106.382 64.9533 106.843 64.8188 107.227C64.6843 107.631 64.4729 107.938 64.1654 108.188C63.8771 108.437 63.5119 108.572 63.1083 108.61C62.7047 108.649 62.3203 108.591 61.9936 108.418C61.6477 108.245 61.3786 107.996 61.148 107.631C60.9174 107.285 60.7828 106.843 60.7252 106.344C60.6675 105.845 60.7059 105.384 60.8405 104.999C60.975 104.596 61.1864 104.289 61.4939 104.039C61.7822 103.789 62.1474 103.655 62.551 103.616C62.9546 103.578 63.3389 103.636 63.6657 103.809C64.0116 103.981 64.2807 104.231 64.5113 104.596C64.7227 104.942 64.8765 105.364 64.9341 105.883ZM64.4921 105.921C64.4344 105.48 64.3383 105.115 64.1461 104.827C63.954 104.538 63.7425 104.308 63.4735 104.173C63.2044 104.039 62.9161 103.981 62.5894 104.02C62.2627 104.058 61.9936 104.173 61.763 104.366C61.5324 104.558 61.3594 104.827 61.2441 105.153C61.1288 105.48 61.1095 105.864 61.148 106.305C61.2056 106.747 61.3017 107.112 61.4939 107.4C61.6669 107.688 61.8975 107.919 62.1666 108.053C62.4357 108.188 62.7239 108.245 63.0507 108.207C63.3774 108.169 63.6464 108.053 63.8771 107.861C64.1077 107.669 64.2807 107.4 64.396 107.074C64.5113 106.747 64.5497 106.363 64.4921 105.921Z" fill="#FEFEFE"/>
<path d="M65.6504 103.289L66.1501 103.174L68.8407 106.919L68.8792 106.9L69.6479 102.348L70.1476 102.233L71.2431 106.996L70.8395 107.092L69.9554 103.251H69.917L69.1867 107.457L68.7831 107.553L66.2846 104.077H66.2462L67.1303 107.918L66.7267 108.014L65.6504 103.289Z" fill="#FEFEFE"/>
<path d="M72.9311 106.497L71.3359 101.868L72.835 101.349C73.1617 101.234 73.45 101.196 73.7191 101.253C73.9882 101.311 74.1996 101.407 74.3918 101.599C74.5839 101.772 74.7185 102.002 74.8146 102.271C74.9107 102.54 74.9299 102.809 74.8914 103.059C74.853 103.308 74.7569 103.539 74.5647 103.75C74.3918 103.942 74.1419 104.115 73.8152 104.23L72.6428 104.634L72.5083 104.25L73.6614 103.846C73.9113 103.769 74.0843 103.654 74.2188 103.5C74.3533 103.347 74.4302 103.193 74.4494 103.001C74.4686 102.809 74.4494 102.617 74.3725 102.425C74.2957 102.233 74.1996 102.06 74.065 101.925C73.9305 101.791 73.7767 101.714 73.5846 101.676C73.3924 101.637 73.181 101.657 72.9311 101.753L71.8741 102.118L73.3347 106.362L72.9311 106.497Z" fill="#FEFEFE"/>
<path d="M77.2188 104.922L75.2393 100.446L75.6429 100.273L77.4494 104.384L79.5827 103.443L79.7365 103.808L77.2188 104.922Z" fill="#FEFEFE"/>
<path d="M79.0237 98.6807L81.2531 103.041L80.8495 103.252L78.6201 98.892L79.0237 98.6807Z" fill="#FEFEFE"/>
<path d="M82.6611 102.31L82.2575 102.541L81.2773 97.4315L81.6809 97.1818L85.7169 100.466L85.3133 100.697L81.7963 97.7772L81.777 97.7965L82.6611 102.31ZM82.0077 100.524L84.1025 99.2754L84.3139 99.6211L82.2191 100.87L82.0077 100.524Z" fill="#FEFEFE"/>
<path d="M86.9442 93.5916L89.8462 97.529L89.5003 97.7787L84.7532 96.1845L84.7148 96.2037L87.1364 99.5073L86.7712 99.7763L83.8691 95.8388L84.2151 95.5891L88.9814 97.1641L89.0198 97.1449L86.5982 93.8412L86.9442 93.5916Z" fill="#FEFEFE"/>
<path d="M91.7531 91.3634L91.4264 91.6707C91.2919 91.5747 91.1381 91.4979 90.9844 91.4402C90.8306 91.4018 90.6576 91.3826 90.4847 91.3826C90.3117 91.3826 90.158 91.421 89.985 91.4979C89.8312 91.5747 89.6775 91.6707 89.5237 91.786C89.2931 91.9972 89.1393 92.2469 89.0625 92.535C88.9856 92.8232 88.9856 93.1305 89.0817 93.4762C89.1778 93.8219 89.37 94.1484 89.6775 94.475C89.985 94.8015 90.2925 95.0512 90.6192 95.1664C90.9459 95.3009 91.2534 95.3393 91.5417 95.2817C91.83 95.224 92.0991 95.0896 92.3297 94.8975C92.4642 94.7631 92.5795 94.6286 92.6756 94.475C92.7525 94.3213 92.8102 94.1677 92.8294 93.9948C92.8486 93.8219 92.8486 93.6683 92.8102 93.4954C92.7717 93.3225 92.7141 93.1689 92.6372 93.0344L92.9639 92.7271C93.0792 92.9192 93.1753 93.1305 93.2138 93.3417C93.2714 93.553 93.2714 93.7835 93.2522 93.9948C93.233 94.2061 93.1561 94.4366 93.06 94.6286C92.9447 94.8399 92.8102 95.032 92.618 95.2048C92.3105 95.4737 91.9838 95.6466 91.5994 95.7042C91.2342 95.7618 90.8498 95.7234 90.4655 95.5698C90.0811 95.4161 89.7159 95.1472 89.37 94.7631C89.024 94.3789 88.7934 93.9948 88.6781 93.5914C88.5628 93.1881 88.5436 92.8039 88.6397 92.439C88.7357 92.0741 88.9279 91.7476 89.2354 91.4787C89.4276 91.3058 89.639 91.1713 89.8504 91.0753C90.0619 90.9793 90.2925 90.9409 90.5039 90.9409C90.7345 90.9409 90.9459 90.9601 91.1573 91.0369C91.388 91.1137 91.5802 91.2098 91.7531 91.3634Z" fill="#FEFEFE"/>
<path d="M95.0155 92.8028L91.4023 89.4992L93.3242 87.4056L93.6125 87.6745L91.9981 89.4416L93.3627 90.6901L94.881 89.0382L95.1693 89.3071L93.651 90.959L95.0155 92.2074L96.6683 90.402L96.9566 90.6709L95.0155 92.8028Z" fill="#FEFEFE"/>
<defs>
<radialGradient id="paint0_radial_1_9919" cx="0" cy="0" r="1" gradientUnits="userSpaceOnUse" gradientTransform="translate(57.2474 57.0007) scale(56.4661 56.4313)">
<stop offset="0.403" stop-color="#225E63"/>
<stop offset="1" stop-color="#225E63"/>
</radialGradient>
<radialGradient id="paint1_radial_1_9919" cx="0" cy="0" r="1" gradientUnits="userSpaceOnUse" gradientTransform="translate(57.2494 57.0001) scale(42.8219 42.7955)">
<stop offset="0.2219" stop-color="#226163"/>
<stop offset="1" stop-color="#257762"/>
</radialGradient>
</defs>
</svg>
